<svg xmlns="http://www.w3.org/2000/svg">
    <symbol id="instagram" viewBox="0 0 665 664" fill="none">
        <path fill-rule="evenodd" clip-rule="evenodd" d="M332.5 513.091C432.664 513.091 513.864 432.013 513.864 332C513.864 231.986 432.664 150.909 332.5 150.909C232.336 150.909 151.136 231.986 151.136 332C151.136 432.013 232.336 513.091 332.5 513.091ZM332.5 452.727C399.275 452.727 453.409 398.675 453.409 332C453.409 265.324 399.275 211.273 332.5 211.273C265.724 211.273 211.591 265.324 211.591 332C211.591 398.675 265.724 452.727 332.5 452.727Z" fill="#F3E8D0"/>
        <path d="M513.864 120.727C497.169 120.727 483.636 134.24 483.636 150.909C483.636 167.578 497.169 181.091 513.864 181.091C530.558 181.091 544.091 167.578 544.091 150.909C544.091 134.24 530.558 120.727 513.864 120.727Z" fill="#F3E8D0"/>
        <path fill-rule="evenodd" clip-rule="evenodd" d="M19.7674 98.8774C0 137.615 0 188.325 0 289.745V374.255C0 475.675 0 526.386 19.7674 565.121C37.1554 599.197 64.9004 626.901 99.0264 644.261C137.822 664 188.609 664 290.182 664H374.818C476.391 664 527.179 664 565.972 644.261C600.099 626.901 627.845 599.197 645.231 565.121C665 526.386 665 475.675 665 374.255V289.745C665 188.325 665 137.615 645.231 98.8774C627.845 64.8028 600.099 37.0995 565.972 19.7377C527.179 0 476.391 0 374.818 0H290.182C188.609 0 137.822 0 99.0264 19.7377C64.9004 37.0995 37.1554 64.8028 19.7674 98.8774ZM374.818 60.3636H290.182C238.398 60.3636 203.195 60.4107 175.986 62.6303C149.481 64.7925 135.927 68.7116 126.472 73.522C103.722 85.0967 85.2249 103.566 73.6327 126.282C68.8151 135.723 64.8901 149.256 62.7246 175.721C60.5017 202.89 60.4545 238.039 60.4545 289.745V374.255C60.4545 425.962 60.5017 461.109 62.7246 488.278C64.8901 514.745 68.8151 528.278 73.6327 537.719C85.2249 560.434 103.722 578.902 126.472 590.477C135.927 595.288 149.481 599.209 175.986 601.37C203.195 603.588 238.398 603.636 290.182 603.636H374.818C426.604 603.636 461.803 603.588 489.014 601.37C515.52 599.209 529.074 595.288 538.529 590.477C561.278 578.902 579.774 560.434 591.366 537.719C596.185 528.278 600.111 514.745 602.275 488.278C604.497 461.109 604.545 425.962 604.545 374.255V289.745C604.545 238.039 604.497 202.89 602.275 175.721C600.111 149.256 596.185 135.723 591.366 126.282C579.774 103.566 561.278 85.0967 538.529 73.522C529.074 68.7116 515.52 64.7925 489.014 62.6303C461.803 60.4107 426.604 60.3636 374.818 60.3636Z" fill="#F3E8D0"/>
    </symbol>
</svg>