<svg xmlns="http://www.w3.org/2000/svg">
    <symbol id="phone" viewBox="0 0 700 664" fill="none">
<path d="M480.257 453.715L496.607 437.46L458.641 399.283L442.295 415.538L480.257 453.715ZM551.512 430.652L620.089 467.928L645.804 420.631L577.227 383.354L551.512 430.652ZM633.291 542.015L582.299 592.711L620.261 630.889L671.253 580.192L633.291 542.015ZM551.228 609.034C499.184 613.883 364.536 609.562 218.751 464.619L180.788 502.796C339.876 660.965 491.291 668.689 556.225 662.638L551.228 609.034ZM218.751 464.619C79.7888 326.459 56.7698 210.256 53.9043 159.843L0.148919 162.898C3.75492 226.348 32.2579 355.126 180.788 502.796L218.751 464.619ZM268.118 242.801L278.413 232.565L240.451 194.389L230.156 204.624L268.118 242.801ZM286.608 102.093L241.346 41.6379L198.244 73.9019L243.505 134.357L286.608 102.093ZM89.1154 28.4794L32.7748 84.4945L70.7387 122.671L127.079 66.6562L89.1154 28.4794ZM249.137 223.713C230.156 204.624 230.13 204.65 230.104 204.675C230.095 204.684 230.069 204.71 230.052 204.728C230.017 204.763 229.981 204.799 229.945 204.836C229.872 204.911 229.796 204.988 229.719 205.068C229.563 205.229 229.399 205.404 229.226 205.592C228.88 205.968 228.499 206.398 228.092 206.883C227.279 207.854 226.356 209.05 225.387 210.48C223.444 213.347 221.327 217.138 219.531 221.906C215.865 231.634 213.9 244.459 216.363 260.339C221.182 291.395 242.572 332.417 297.365 386.893L335.328 348.715C284.052 297.735 271.837 266.711 269.569 252.085C268.488 245.125 269.608 241.699 269.917 240.888C270.103 240.386 270.193 240.335 269.963 240.678C269.848 240.845 269.658 241.108 269.36 241.461C269.213 241.638 269.037 241.838 268.833 242.062C268.729 242.173 268.621 242.291 268.499 242.414C268.441 242.475 268.38 242.538 268.316 242.603C268.283 242.635 268.251 242.668 268.219 242.701C268.204 242.717 268.179 242.742 268.169 242.751C268.143 242.776 268.118 242.801 249.137 223.713ZM297.365 386.893C352.177 441.387 393.395 462.595 424.505 467.368C440.403 469.805 453.221 467.86 462.945 464.239C467.712 462.462 471.509 460.369 474.381 458.446C475.817 457.484 477.016 456.569 477.988 455.761C478.477 455.359 478.907 454.982 479.284 454.638C479.474 454.465 479.65 454.304 479.812 454.149C479.894 454.071 479.97 453.995 480.045 453.923C480.081 453.887 480.117 453.852 480.153 453.816C480.171 453.798 480.199 453.773 480.207 453.765C480.232 453.74 480.257 453.715 461.276 434.625C442.295 415.538 442.32 415.513 442.345 415.488C442.352 415.48 442.377 415.455 442.395 415.437C442.427 415.405 442.46 415.373 442.492 415.34C442.56 415.279 442.621 415.218 442.682 415.157C442.808 415.039 442.926 414.931 443.038 414.827C443.26 414.626 443.461 414.45 443.641 414.307C443.992 414.012 444.254 413.826 444.416 413.714C444.75 413.492 444.682 413.592 444.15 413.79C443.271 414.116 439.75 415.24 432.671 414.152C417.836 411.88 386.589 399.677 335.328 348.715L297.365 386.893ZM241.346 41.6379C204.758 -7.23125 132.811 -14.964 89.1154 28.4794L127.079 66.6562C146.164 47.6816 180.059 49.6129 198.244 73.9019L241.346 41.6379ZM53.9043 159.843C53.1983 147.421 58.8962 134.445 70.7387 122.671L32.7748 84.4945C13.4878 103.67 -1.6749 130.815 0.148919 162.898L53.9043 159.843ZM582.299 592.711C572.435 602.52 561.86 608.044 551.228 609.034L556.225 662.638C582.593 660.179 604.198 646.86 620.261 630.889L582.299 592.711ZM278.413 232.565C313.751 197.43 316.379 141.857 286.608 102.093L243.505 134.357C257.989 153.702 255.835 179.093 240.451 194.389L278.413 232.565ZM620.089 467.928C649.444 483.885 654.017 521.406 633.291 542.015L671.253 580.192C719.363 532.36 704.528 452.549 645.804 420.631L620.089 467.928ZM496.607 437.46C510.391 423.757 532.577 420.362 551.512 430.652L577.227 383.354C538.331 362.211 490.06 368.05 458.641 399.283L496.607 437.46Z" fill="#F3E8D0"/>
</svg>
