<svg xmlns="http://www.w3.org/2000/svg">
    <symbol id="trip-advisor" viewBox="0 0 663 664" fill="none">
        <path d="M209.21 274.83C187.265 274.83 166.219 283.56 150.702 299.101C135.185 314.641 126.467 335.719 126.467 357.697C126.467 379.675 135.185 400.752 150.702 416.293C166.219 431.833 187.265 440.564 209.21 440.564C231.154 440.564 252.2 431.833 267.717 416.293C283.235 400.752 291.952 379.675 291.952 357.697C291.952 335.719 283.235 314.641 267.717 299.101C252.2 283.56 231.154 274.83 209.21 274.83ZM252.603 357.73C252.603 366.325 250.058 374.728 245.29 381.874C240.522 389.021 233.745 394.591 225.816 397.881C217.886 401.17 209.162 402.031 200.744 400.354C192.327 398.677 184.595 394.538 178.526 388.46C172.457 382.382 168.324 374.639 166.65 366.208C164.976 357.778 165.835 349.04 169.119 341.099C172.404 333.158 177.966 326.371 185.102 321.595C192.238 316.82 200.627 314.271 209.21 314.271C233.177 314.271 252.603 333.726 252.603 357.73ZM453.79 274.83C437.425 274.83 421.428 279.69 407.821 288.795C394.214 297.901 383.609 310.843 377.346 325.985C371.084 341.127 369.445 357.789 372.638 373.863C375.83 389.938 383.711 404.704 395.283 416.293C406.854 427.882 421.598 435.774 437.648 438.972C453.699 442.169 470.335 440.528 485.455 434.256C500.574 427.984 513.496 417.363 522.588 403.735C531.68 390.108 536.533 374.086 536.533 357.697C536.524 335.722 527.804 314.649 512.288 299.111C496.773 283.572 475.732 274.838 453.79 274.83ZM497.151 357.73C497.151 366.325 494.606 374.728 489.837 381.874C485.069 389.021 478.292 394.591 470.363 397.881C462.434 401.17 453.709 402.031 445.292 400.354C436.874 398.677 429.142 394.538 423.073 388.46C417.005 382.382 412.872 374.639 411.198 366.208C409.523 357.778 410.383 349.04 413.667 341.099C416.951 333.158 422.513 326.371 429.649 321.595C436.785 316.82 445.175 314.271 453.757 314.271C477.758 314.271 497.151 333.726 497.151 357.73Z" fill="#F3E8D0"/>
        <path d="M331.5 0C148.413 0 0 148.636 0 332C0 515.364 148.413 664 331.5 664C514.587 664 663 515.364 663 332C663 148.636 514.587 0 331.5 0ZM453.79 480.205C422.981 480.24 393.3 468.591 370.716 447.602L331.533 490.298L292.317 447.569L292.118 447.768C268.089 468.966 236.718 479.881 204.742 478.171C172.766 476.46 142.735 462.261 121.096 438.621C99.4582 414.981 87.9384 383.786 89.0108 351.734C90.0831 319.682 103.662 289.33 126.832 267.194L86.7867 223.602H175.728C221.702 192.272 276.025 175.518 331.633 175.518C387.241 175.518 441.563 192.272 487.537 223.602H576.246L536.234 267.194C554.46 283.846 567.232 305.629 572.874 329.683C578.515 353.736 576.763 378.936 567.846 401.974C558.929 425.012 543.266 444.811 522.911 458.773C502.556 472.734 478.461 480.205 453.79 480.205Z" fill="#F3E8D0"/>
        <path d="M239.675 233.994C291.919 254.013 331.533 300.792 331.533 355.34C331.533 300.792 371.147 254.013 423.359 233.994C394.258 221.847 363.043 215.594 331.517 215.594C299.99 215.594 268.775 221.847 239.675 233.994Z" fill="#F3E8D0"/>
    </symbol>
</svg>
