<svg xmlns="http://www.w3.org/2000/svg">
    <symbol id="whatsapp" viewBox="0 0 664 664" fill="none">
        <path fill-rule="evenodd" clip-rule="evenodd" d="M567.167 96.8333C504.917 34.5833 420.533 0 332 0C149.677 0 0 149.677 0 332C0 390.377 17.9833 445.71 47.0333 495.787L0 664L175.13 621.117C223.547 647.677 276.667 664 332 664C514.323 664 664 514.323 664 332C664 243.743 629.693 159.36 567.167 96.8333ZM332 608.667C282.753 608.667 235.72 592.343 193.39 567.443L183.43 561.357L79.4033 588.747L107.07 487.21L100.43 476.697C73.04 432.983 55.3333 384.013 55.3333 332C55.3333 180.387 180.387 55.3333 332 55.3333C405.317 55.3333 475.867 84.3833 527.88 136.397C579.893 188.41 608.667 258.683 608.667 332C608.667 483.613 483.337 608.667 332 608.667ZM484.167 399.783C475.867 395.633 435.197 375.713 427.727 372.947C420.257 370.18 414.723 368.797 409.19 377.097C403.657 385.397 387.887 403.933 382.907 409.467C378.203 415 373.223 415.553 364.923 411.403C356.623 407.253 330.063 398.677 298.523 370.457C273.9 348.6 257.3 321.487 252.597 313.187C247.893 304.887 252.043 300.46 256.193 296.31C259.79 292.713 264.493 286.627 268.643 281.923C272.793 277.22 274.177 273.623 276.943 268.09C279.71 262.557 278.327 257.853 276.39 253.703C274.177 249.553 257.577 208.883 250.66 192.283C244.02 176.237 237.103 178.45 232.123 178.173C227.42 177.897 221.887 177.897 216.353 177.897C210.82 177.897 201.967 180.11 194.22 188.133C186.75 196.433 165.447 216.63 165.447 257.3C165.447 297.97 195.05 337.257 199.2 342.79C203.35 348.323 257.577 431.877 340.3 467.567C359.943 476.143 375.437 481.123 387.333 484.997C407.253 491.36 425.237 490.53 439.347 488.317C455.117 485.827 488.317 468.397 495.233 449.03C502.15 429.663 502.15 413.063 499.937 409.743C498 406.147 492.467 403.933 484.167 399.783Z" fill="#F3E8D0"/>
    </symbol>
</svg>
