<svg xmlns="http://www.w3.org/2000/svg">
    <symbol id="light-arrow" viewBox="0 0 84 84" fill="none">
        <circle cx="42" cy="42" r="42" transform="matrix(-1 0 0 1 84 0)" fill="#F3E8D0"/>
        <path d="M57.002 40.5C57.8304 40.5 58.502 41.1716 58.502 42C58.502 42.8284 57.8304 43.5 57.002 43.5V40.5ZM25.9413 43.0607C25.3555 42.4749 25.3555 41.5251 25.9413 40.9393L35.4872 31.3934C36.073 30.8076 37.0228 30.8076 37.6086 31.3934C38.1943 31.9792 38.1943 32.9289 37.6086 33.5147L29.1233 42L37.6086 50.4853C38.1943 51.0711 38.1943 52.0208 37.6086 52.6066C37.0228 53.1924 36.073 53.1924 35.4872 52.6066L25.9413 43.0607ZM57.002 43.5H27.002V40.5H57.002V43.5Z" fill="#3F362F"/>
    </symbol>
</svg>
