<svg xmlns="http://www.w3.org/2000/svg">
<symbol id="light-arrow" viewBox="0 0 144 144" fill="none">
    <g filter="url(#filter0_d_709_9)">
    <circle cx="42" cy="42" r="42" transform="matrix(-1 0 0 1 114 26)" fill="#F3E8D0"/>
    <path d="M87.002 66.5C87.8304 66.5 88.502 67.1716 88.502 68C88.502 68.8284 87.8304 69.5 87.002 69.5V66.5ZM55.9413 69.0607C55.3555 68.4749 55.3555 67.5251 55.9413 66.9393L65.4872 57.3934C66.073 56.8076 67.0228 56.8076 67.6086 57.3934C68.1943 57.9792 68.1943 58.9289 67.6086 59.5147L59.1233 68L67.6086 76.4853C68.1943 77.0711 68.1943 78.0208 67.6086 78.6066C67.0228 79.1924 66.073 79.1924 65.4872 78.6066L55.9413 69.0607ZM87.002 69.5H57.002V66.5H87.002V69.5Z" fill="#3F362F"/>
    </g>
    <defs>
    <filter id="filter0_d_709_9" x="0" y="0" width="144" height="144" filterUnits="userSpaceOnUse" color-interpolation-filters="sRGB">
    <feFlood flood-opacity="0" result="BackgroundImageFix"/>
    <feColorMatrix in="SourceAlpha" type="matrix" values="0 0 0 0 0 0 0 0 0 0 0 0 0 0 0 0 0 0 127 0" result="hardAlpha"/>
    <feOffset dy="4"/>
    <feGaussianBlur stdDeviation="15"/>
    <feComposite in2="hardAlpha" operator="out"/>
    <feColorMatrix type="matrix" values="0 0 0 0 0 0 0 0 0 0 0 0 0 0 0 0 0 0 0.25 0"/>
    <feBlend mode="normal" in2="BackgroundImageFix" result="effect1_dropShadow_709_9"/>
    <feBlend mode="normal" in="SourceGraphic" in2="effect1_dropShadow_709_9" result="shape"/>
    </filter>
    </defs>
</symbol>
</svg>
