<svg xmlns="http://www.w3.org/2000/svg">
    <symbol id="special" viewBox="0 0 43 43" fill="none">
        <path d="M0.000832173 35.3345C0.0923691 35.1132 0.170592 34.8818 0.277523 34.6717C0.698177 33.8423 1.30399 33.3962 2.11575 33.3947C2.35125 33.3947 2.58717 33.3947 2.85595 33.3947C3.23375 27.7237 5.01664 22.8512 8.31155 18.848C11.5965 14.8575 15.5912 12.699 20.2222 12.2377V9.88325C19.7158 9.88325 19.2298 9.88628 18.7439 9.88274C17.9758 9.87666 17.4008 9.22045 17.3991 8.3541C17.3974 7.48825 17.9733 6.82393 18.7397 6.82241C20.5867 6.81887 22.434 6.81786 24.281 6.82241C25.0391 6.82444 25.6187 7.51408 25.6033 8.37638C25.5883 9.22855 25.025 9.87363 24.2823 9.88274C23.8204 9.88831 23.359 9.88628 22.8971 9.88932C22.8709 9.88932 22.8443 9.90401 22.7594 9.92932V12.2357C27.4095 12.6884 31.413 14.8575 34.7025 18.8617C37.9853 22.8582 39.7636 27.7181 40.1448 33.3952C40.4206 33.3952 40.6832 33.3912 40.9457 33.3957C42.0812 33.416 42.9841 34.5208 42.9995 35.9062C43.0423 39.7731 40.4431 42.9944 37.2551 42.9959C26.76 43.002 16.2649 43.0005 5.76932 42.9964C2.95331 42.9954 0.584588 40.5503 0.0815511 37.1528C0.0669884 37.055 0.0278772 36.9624 0 36.8677C0 36.3568 0 35.8454 0 35.3345H0.000832173ZM37.5489 33.3684C37.1677 24.2821 30.6075 15.2312 21.4155 15.2935C12.2764 15.3553 5.81842 24.392 5.4556 33.3684H37.5489ZM2.57635 36.4803C2.60215 36.6667 2.6138 36.8328 2.64916 36.9902C3.06066 38.8151 4.3401 39.9346 6.0223 39.9346C16.3377 39.9361 26.6535 39.9361 36.9689 39.9311C37.2747 39.9311 37.5847 39.8966 37.8855 39.8293C39.2078 39.5326 40.3886 37.9563 40.3944 36.4803H2.57635Z" fill="#3F362F"/>
        <path d="M9.19821 28.5252C9.26229 28.2872 9.30515 28.0361 9.39419 27.8123C10.5488 24.8998 12.2722 22.6117 14.5361 20.926C15.1972 20.4339 15.9553 20.6278 16.3381 21.3615C16.7242 22.1013 16.549 23.0274 15.8862 23.5256C14.0168 24.9302 12.6005 26.8224 11.6331 29.2235C11.351 29.9242 10.7593 30.2437 10.2055 30.0696C9.61055 29.8822 9.23192 29.2852 9.19821 28.5252Z" fill="#3F362F"/>
        <path d="M21.0393 18.5513C21.3194 18.5731 21.5927 18.5478 21.8457 18.6237C22.4407 18.803 22.8102 19.4931 22.7573 20.2486C22.7082 20.9483 22.2277 21.5549 21.6393 21.6233C21.1804 21.6764 20.7194 21.7058 20.2588 21.724C19.5477 21.7519 18.9635 21.1321 18.9057 20.3093C18.8475 19.4749 19.3268 18.7766 20.0512 18.6612C20.3832 18.6085 20.7186 18.5862 21.0393 18.5513Z" fill="#3F362F"/>
        <path d="M9.93114 12.2038L9.92032 12.1547C9.67483 11.0412 8.9546 10.1759 8.03715 9.89082L8.02842 9.88829L8.44782 9.66297C9.09815 9.31309 9.60368 8.65737 9.84917 7.8452L9.93155 7.57279L9.99105 7.78343C10.2307 8.63206 10.7529 9.31866 11.4294 9.67512L11.8343 9.88829L11.8072 9.8969C10.8831 10.1926 10.1646 11.0767 9.93114 12.2038Z" fill="#3F362F"/>
        <path d="M30.5804 5.54849L30.5684 5.49026C30.2983 4.16415 29.4545 3.15045 28.3611 2.83855L28.3507 2.83551L28.8579 2.55196C29.6447 2.11195 30.2646 1.3099 30.5763 0.329122L30.6807 0L30.7473 0.250639C31.0157 1.25978 31.6265 2.06537 32.4295 2.47044L32.9101 2.71298L32.8776 2.72412C31.7642 3.10792 30.8842 4.18997 30.5804 5.54849Z" fill="#3F362F"/>
    </symbol>
</svg>
