<svg xmlns="http://www.w3.org/2000/svg">
    <symbol id="spicy" viewBox="0 0 36 36" fill="none">
        <path d="M32.9118 6.39254C32.8068 6.30939 32.802 6.29283 32.8463 6.16864C33.2879 4.93575 34.0736 3.90516 35.2486 3.01783C36.0692 2.39833 36.2349 1.47788 35.6605 0.727349C35.0768 -0.0354251 34.0418 -0.217929 33.0844 0.273428C31.2485 1.21511 29.8261 2.47788 28.8562 4.02647C28.5666 4.48903 28.5646 4.49227 27.7061 4.64669C27.5802 4.65425 27.4632 4.66001 27.353 4.66577C27.0979 4.67873 26.8779 4.68953 26.653 4.71545C26.3437 4.75072 26.0444 4.804 25.7644 4.87347C22.6103 5.65569 20.6328 7.19959 19.7188 9.59411C19.3886 10.4588 19.0985 11.4263 18.8049 12.6398C18.1246 15.4537 16.9581 18.0793 15.3382 20.4432C13.752 22.7578 11.6816 24.8939 9.18395 26.7923C6.82347 28.5864 4.25543 30.2347 1.33299 31.8316C0.964513 32.0328 0.443985 32.3686 0.177687 32.9583C-0.130849 33.6418 -0.033501 34.4147 0.437951 35.0256C0.911012 35.6382 1.68859 36 2.52771 36C2.54661 36 2.56592 36 2.58523 35.9993C5.21804 35.9474 7.80017 35.5716 10.26 34.8819C14.5702 33.6735 18.5241 31.9154 22.0121 29.6563C25.4877 27.405 28.5907 24.598 31.2348 21.3129C33.7357 18.206 35.0446 15.3695 35.3544 12.386C35.4787 11.1888 35.3544 10.0927 34.9855 9.12867C34.586 8.08584 33.8889 7.16504 32.9126 6.39254H32.9118ZM30.3824 5.05346C31.2123 3.73345 32.3028 2.71258 33.7015 1.94584C32.5051 2.92496 31.6652 4.0387 31.1459 5.33495L30.3828 5.05346H30.3824ZM21.1847 11.3403C22.0865 11.3047 22.9176 11.1236 23.6622 10.8007C23.6779 10.9123 23.6932 11.0235 23.7081 11.133C23.7857 11.701 23.8661 12.2885 23.9884 12.8605C24.0826 13.3007 24.2696 13.7186 24.4506 14.1229C24.4756 14.1787 24.5005 14.2345 24.5251 14.2899C24.7857 14.8792 25.126 15.0444 25.8264 14.922C27.3019 14.6639 29.172 14.2161 30.7485 13.0365C30.8269 13.2975 30.9102 13.566 31.0526 13.8165C31.4231 14.4681 31.835 15.1002 32.2771 15.6949C32.405 15.8669 32.4038 15.9184 32.343 16.0473C31.1427 18.6117 29.4041 20.986 27.0287 23.3068C24.8823 25.4036 22.525 27.2484 20.0221 28.7895C17.4722 30.3596 14.699 31.6599 11.7793 32.6534C8.73864 33.6883 5.83632 34.221 2.90624 34.2829C2.87043 34.2837 2.83423 34.2847 2.79843 34.2858C2.70108 34.2887 2.60937 34.2916 2.52208 34.2873C2.10171 34.2664 1.99431 34.0673 1.94764 33.8963C1.90018 33.7232 1.90299 33.5353 2.2421 33.3366C2.6512 33.0968 3.06915 32.8546 3.47343 32.6206C4.63395 31.9485 5.8335 31.2534 6.97874 30.5205C10.6594 28.1642 13.5384 25.6995 15.7815 22.9853C17.8917 20.4313 19.4018 17.4709 20.397 13.9346C20.6344 13.0912 20.8689 12.2651 21.1259 11.4285C21.1328 11.4066 21.1605 11.3666 21.1847 11.34V11.3403ZM32.3088 11.287C32.3024 11.264 32.2984 11.2298 32.294 11.1931C32.2815 11.0912 32.2646 10.9519 32.1644 10.8338C32.1495 10.8162 32.1338 10.7975 32.1182 10.7788C31.9544 10.5815 31.7505 10.336 31.4516 10.2917C31.4178 10.2867 31.382 10.2842 31.3454 10.2842C31.0329 10.2842 30.6451 10.4613 30.4954 10.6863C29.5067 12.1733 27.8502 12.7125 26.0693 13.1326C25.6647 12.0837 25.5206 11.0855 25.6301 10.0891C25.6482 9.92492 25.6759 9.76257 25.7057 9.59051C25.7246 9.48072 25.7443 9.36733 25.7608 9.25394C25.8308 8.7759 25.6647 8.44545 25.2676 8.27086C24.9889 8.14847 24.5584 8.08224 24.091 8.46056C23.3549 9.05631 22.665 9.39828 21.9192 9.53759C21.8902 9.54299 21.8613 9.54767 21.8311 9.55199C22.4924 8.37417 23.6815 7.3911 25.1305 6.83278C26.6703 6.23956 28.3807 6.17512 29.8233 6.6564C31.7787 7.30866 32.9605 8.64127 33.3362 10.6171C33.5305 11.6402 33.4593 12.6776 33.117 13.7715C33.0212 13.6045 32.9364 13.4404 32.8768 13.2716C32.7139 12.8112 32.586 12.327 32.4621 11.8583C32.4126 11.6711 32.3615 11.4778 32.3084 11.2874L32.3088 11.287Z" fill="#3F362F"/>
    </symbol>
</svg>
