<svg xmlns="http://www.w3.org/2000/svg">
    <symbol id="veggie" viewBox="0 0 36 36" fill="none">
        <path d="M35.492 6.37605C35.2515 4.91678 34.1944 4.1171 32.5906 4.18248C31.7179 4.21828 30.9246 4.27198 30.1653 4.34708C27.3748 4.62337 24.6853 5.25417 22.1715 6.22195C19.6872 7.17885 17.3063 8.49102 15.0948 10.1227C15.0936 10.1141 15.0919 10.1056 15.0907 10.0974C15.0267 9.72148 14.9661 9.36619 14.8793 9.01324C13.9584 5.26856 11.72 2.35898 8.22629 0.36542C7.16253 -0.241636 5.89565 -0.0813113 5.07322 0.764287C1.04289 4.90822 -0.599069 9.82265 0.193871 15.371C0.684007 18.802 2.25452 21.926 4.86179 24.6562C4.91455 24.7115 4.96522 24.8718 4.94694 24.9738C4.85016 25.5182 4.7322 26.0711 4.61797 26.6062C4.54196 26.9634 4.46304 27.3327 4.39077 27.6977C4.3106 28.1028 4.38495 28.4826 4.5997 28.7679C4.78329 29.0115 5.06283 29.1726 5.38682 29.2208C5.73698 29.2734 6.05889 29.2064 6.31808 29.0278C6.61507 28.8231 6.80738 28.4869 6.87384 28.0565C7.33324 25.0812 8.28402 22.307 9.69877 19.8111C11.1164 17.3105 13.0367 15.0243 15.4072 13.0151C17.8363 10.9562 20.5262 9.3658 23.4018 8.28789C26.2645 7.21465 29.3873 6.6216 32.6828 6.5247C32.9649 6.51614 33.006 6.54572 33.0454 6.78776C33.4488 9.27124 33.5954 11.5372 33.4945 13.7148C33.487 13.8779 33.4799 14.0413 33.4724 14.2047C33.413 15.5659 33.3516 16.9731 33.028 18.2841C31.8907 22.8903 28.9217 26.7813 24.6679 29.2403C22.5831 30.4454 20.2998 31.2439 17.8803 31.614C15.6244 31.9592 13.3378 31.9164 11.0716 31.4879C15.2365 28.8107 18.8132 25.5575 21.7038 21.8163C22.4323 20.8734 23.1048 19.8753 23.7553 18.9098C23.9177 18.6685 24.0801 18.4277 24.2438 18.1872C24.4751 17.8467 24.5561 17.4778 24.4714 17.149C24.3958 16.8552 24.1902 16.6034 23.8928 16.44C23.2481 16.0854 22.5611 16.2967 22.0992 16.9906C22.0448 17.0723 21.9933 17.1552 21.9434 17.235C21.9077 17.2926 21.872 17.3498 21.835 17.4066C20.088 20.1084 18.0352 22.5856 15.7337 24.7691C13.4296 26.9549 10.8111 28.9087 7.95048 30.5762C5.98371 31.7226 3.88152 32.7227 1.52305 33.6344C1.1758 33.7687 0.708514 34.066 0.533228 34.4617C0.361265 34.8513 0.617133 35.3887 0.819002 35.6358C1.01506 35.8763 1.30208 36 1.62939 36C1.835 36 2.05639 35.951 2.2811 35.8513L3.07903 35.498C4.62337 34.8143 6.22047 34.1072 7.77852 33.3842C8.09088 33.2395 8.28195 33.2196 8.56647 33.3029C11.8832 34.2734 15.2116 34.4742 18.4597 33.8994C25.0384 32.7351 30.0556 29.378 33.3728 23.9211C34.5773 21.9396 35.2951 20.0663 35.5663 18.1938C35.8176 16.4602 35.9161 14.7102 35.9738 13.379C36.0677 11.2107 35.9098 8.91946 35.4907 6.37489L35.492 6.37605ZM7.09981 7.4995C6.39077 7.66255 6.02026 8.24431 6.17768 8.94709C6.66201 11.1095 7.15713 13.6736 7.15754 16.2979C7.15754 17.3046 7.1347 18.3238 7.11434 19.2231C7.11227 19.3071 7.08485 19.4118 7.03708 19.5169C6.68527 20.2913 6.33303 21.054 5.96003 21.8614L5.84871 22.1023C5.73739 21.9681 5.62607 21.8315 5.51974 21.6949C3.34486 18.8974 2.26698 15.4262 2.48422 11.9213C2.70146 8.41708 4.20011 5.08333 6.70396 2.53448C6.79825 2.43836 6.85931 2.39283 6.92992 2.39283C6.98724 2.39283 7.05038 2.42241 7.143 2.47883C8.6753 3.41276 9.90812 4.5401 10.8074 5.83009C11.7166 7.13448 12.3135 8.64629 12.5814 10.3239L12.5935 10.4001C12.6172 10.548 12.6413 10.7009 12.6695 10.8527C12.8228 11.682 12.5897 12.3069 11.8903 12.942C11.2236 13.5471 10.652 14.2475 10.0992 14.925C9.95381 15.1033 9.80552 15.285 9.65516 15.4652C9.65142 15.4064 9.64727 15.348 9.64353 15.2897C9.59202 14.5215 9.54342 13.7958 9.43418 13.0583C9.20905 11.5368 8.90874 10.0024 8.6184 8.51904L8.59721 8.41203C8.53408 8.08943 8.34425 7.81742 8.06222 7.64659C7.78226 7.47693 7.43085 7.42361 7.09814 7.49988L7.09981 7.4995Z" fill="#3F362F"/>
    </symbol>
</svg>
